ffmpeg version git-2020-01-01-7b58702 Copyright (c) 2000-2020 the FFmpeg developers
  built with gcc 9.2.1 (GCC) 20191125
  configuration: --enable-gpl --enable-version3 --enable-sdl2 --enable-fontconfig --enable-gnutls --enable-iconv --enable-libass --enable-libdav1d --enable-libbluray --enable-libfreetype --enable-libmp3lame --enable-libopencore-amrnb --enable-libopencore-amrwb --enable-libopenjpeg --enable-libopus --enable-libshine --enable-libsnappy --enable-libsoxr --enable-libtheora --enable-libtwolame --enable-libvpx --enable-libwavpack --enable-libwebp --enable-libx264 --enable-libx265 --enable-libxml2 --enable-libzimg --enable-lzma --enable-zlib --enable-gmp --enable-libvidstab --enable-libvorbis --enable-libvo-amrwbenc --enable-libmysofa --enable-libspeex --enable-libxvid --enable-libaom --enable-libmfx --enable-ffnvcodec --enable-cuvid --enable-d3d11va --enable-nvenc --enable-nvdec --enable-dxva2 --enable-avisynth --enable-libopenmpt --enable-amf
  libavutil      56. 38.100 / 56. 38.100
  libavcodec     58. 65.100 / 58. 65.100
  libavformat    58. 35.101 / 58. 35.101
  libavdevice    58.  9.102 / 58.  9.102
  libavfilter     7. 70.101 /  7. 70.101
  libswscale      5.  6.100 /  5.  6.100
  libswresample   3.  6.100 /  3.  6.100
  libpostproc    55.  6.100 / 55.  6.100
Input #0, concat, from 'list.txt':
  Duration: N/A, start: 0.000000, bitrate: 32 kb/s
    Stream #0:0: Video: mpeg4 (Simple Profile) (FMP4 / 0x34504D46), yuv420p, 1920x466 [SAR 1:1 DAR 960:233], 11 fps, 11 tbr, 11 tbn, 11 tbc
    Stream #0:1: Audio: mp3 (U[0][0][0] / 0x0055), 22050 Hz, mono, fltp, 32 kb/s
Output #0, mp4, to 'final.mp4':
  Metadata:
    encoder         : Lavf58.35.101
    Stream #0:0: Video: mpeg4 (Simple Profile) (mp4v / 0x7634706D), yuv420p, 1920x466 [SAR 1:1 DAR 960:233], q=2-31, 11 fps, 11 tbr, 11264 tbn, 11 tbc
    Stream #0:1: Audio: mp3 (mp4a / 0x6134706D), 22050 Hz, mono, fltp, 32 kb/s
Stream mapping:
  Stream #0:0 -> #0:0 (copy)
  Stream #0:1 -> #0:1 (copy)
Press [q] to stop, [?] for help
frame=  201 fps=0.0 q=-1.0 Lsize=   13499kB time=00:04:05.36 bitrate= 450.7kbits/s speed= 976x    
video:12333kB audio:1122kB subtitle:0kB other streams:0kB global headers:0kB muxing overhead: 0.322444%
